<?xml version="1.0" standalone="no"?>
<!DOCTYPE svg PUBLIC "-//W3C//DTD SVG 20010904//EN"
 "http://www.w3.org/TR/2001/REC-SVG-20010904/DTD/svg10.dtd">
<svg version="1.0" xmlns="http://www.w3.org/2000/svg"
 width="632.000000pt" height="632.000000pt" viewBox="0 0 632.000000 632.000000"
 preserveAspectRatio="xMidYMid meet">
<metadata>
Created by potrace 1.14, written by Peter Selinger 2001-2017
</metadata>
<g transform="translate(0.000000,632.000000) scale(0.100000,-0.100000)"
fill="#000000" stroke="none">
<path d="M3345 6139 c-16 -6 -50 -12 -73 -14 -24 -2 -49 -8 -55 -13 -7 -5 -22
-8 -34 -7 -13 1 -23 -3 -23 -8 0 -5 -9 -7 -20 -4 -10 3 -24 -1 -30 -8 -6 -7
-33 -19 -60 -25 -28 -7 -50 -16 -50 -21 0 -4 -7 -6 -15 -3 -8 4 -15 1 -15 -4
0 -6 -18 -18 -40 -28 -21 -10 -37 -21 -34 -26 3 -4 -6 -8 -20 -8 -17 0 -26 -6
-26 -16 0 -8 -4 -13 -9 -10 -5 3 -12 -1 -15 -10 -3 -8 -10 -13 -15 -9 -6 3
-18 -3 -28 -13 -10 -10 -38 -33 -63 -52 -25 -19 -48 -39 -51 -44 -4 -4 -12 -5
-18 -2 -7 5 -16 -4 -22 -23 -6 -17 -19 -33 -30 -36 -10 -4 -19 -11 -19 -16 0
-5 -6 -9 -13 -9 -14 0 -43 -58 -38 -79 1 -9 -3 -12 -12 -8 -9 3 -18 -1 -21 -9
-3 -8 -1 -14 4 -14 6 0 1 -9 -10 -20 -11 -11 -20 -28 -20 -38 0 -23 -22 -72
-33 -72 -5 0 -6 -4 -3 -9 8 -13 -21 -22 -78 -26 -27 -2 -52 -9 -56 -15 -4 -6
-22 -12 -41 -14 -19 -2 -42 -6 -51 -11 -10 -4 -24 -5 -32 -2 -8 3 -17 0 -20
-8 -2 -7 -13 -12 -23 -11 -10 2 -27 -3 -38 -10 -11 -7 -38 -16 -60 -19 -63
-10 -80 -13 -80 -15 0 -2 -12 -3 -27 -4 -15 -1 -31 -6 -35 -10 -4 -5 -2 -6 4
-2 9 5 11 2 7 -8 -5 -12 -10 -13 -26 -5 -12 6 -23 7 -27 2 -3 -5 -22 -10 -41
-11 -19 -2 -37 -8 -41 -14 -4 -6 -14 -8 -22 -5 -8 3 -24 -1 -35 -8 -10 -8 -23
-11 -27 -7 -3 4 -12 -1 -19 -10 -7 -10 -22 -19 -32 -21 -10 -2 -30 -9 -44 -17
-14 -8 -29 -15 -35 -15 -12 -1 -67 -36 -76 -49 -4 -5 -12 -5 -18 -2 -7 5 -11
-1 -11 -15 0 -16 -5 -20 -20 -16 -11 3 -25 -2 -32 -11 -11 -13 -11 -14 1 -7 9
5 12 4 7 -3 -3 -6 -16 -9 -27 -7 -14 3 -33 -8 -56 -30 -20 -19 -43 -35 -52
-36 -10 0 -12 -2 -3 -6 19 -8 14 -19 -10 -20 -11 -1 -25 -8 -29 -15 -5 -7 -9
-10 -9 -6 0 5 -19 -10 -42 -32 -24 -22 -46 -40 -50 -40 -4 0 -21 -14 -38 -30
-17 -17 -35 -28 -39 -26 -4 3 -13 -6 -19 -19 -8 -18 -16 -23 -29 -18 -15 6
-16 4 -5 -9 9 -11 10 -18 2 -23 -5 -3 -10 -3 -10 2 0 4 -5 0 -11 -9 -5 -10
-14 -18 -19 -18 -5 0 -25 -15 -44 -34 -19 -19 -37 -32 -41 -28 -4 4 -5 -2 -3
-13 2 -14 -2 -19 -15 -17 -9 2 -17 -3 -17 -10 0 -8 -13 -27 -28 -44 -28 -31
-59 -92 -54 -106 1 -5 -5 -8 -14 -8 -8 0 -13 -4 -10 -9 3 -5 -1 -14 -9 -21 -8
-7 -12 -16 -9 -21 3 -5 -2 -9 -10 -9 -15 0 -21 -12 -17 -34 1 -4 -11 -19 -26
-33 -15 -14 -22 -22 -15 -19 6 4 12 3 12 -2 0 -6 -7 -13 -16 -16 -9 -4 -14 -9
-11 -12 3 -4 0 -13 -8 -20 -7 -8 -11 -23 -8 -34 4 -13 -2 -27 -16 -39 -16 -14
-19 -21 -10 -27 9 -5 8 -9 -5 -14 -10 -3 -17 -10 -17 -15 0 -6 -8 -19 -17 -29
-13 -15 -13 -17 -2 -11 12 7 12 5 -1 -11 -9 -10 -14 -24 -12 -31 2 -7 -1 -22
-8 -35 -7 -13 -12 -29 -10 -36 1 -8 -3 -20 -10 -28 -7 -8 -14 -27 -16 -42 -5
-43 -8 -56 -15 -67 -7 -12 -20 -120 -22 -180 -1 -22 -8 -45 -16 -52 -11 -9
-12 -12 -2 -13 15 0 13 -41 -2 -52 -6 -4 -6 -15 1 -30 7 -17 6 -32 -3 -55 -11
-26 -11 -34 -1 -45 14 -15 14 -18 3 -71 -4 -24 -3 -43 3 -51 6 -7 9 -27 7 -44
-2 -19 1 -29 7 -25 5 3 7 0 5 -8 -3 -8 -12 -13 -19 -11 -8 2 -3 -8 11 -23 17
-18 19 -24 7 -20 -16 7 -16 5 -2 -21 8 -16 11 -30 6 -32 -13 -4 4 -57 18 -55
6 2 10 0 9 -5 -1 -4 1 -26 5 -50 5 -28 11 -41 19 -36 7 5 8 3 2 -7 -14 -22
-13 -39 1 -39 12 0 31 -45 26 -64 -1 -5 6 -6 16 -4 15 4 18 -2 19 -31 0 -19 6
-37 12 -39 9 -3 9 -9 2 -23 -9 -15 -7 -19 5 -19 11 0 13 -4 8 -12 -12 -19 -4
-50 20 -75 11 -13 17 -23 12 -23 -5 0 0 -6 10 -14 11 -8 16 -19 12 -30 -4 -10
2 -21 19 -32 18 -12 23 -22 18 -37 -5 -16 -3 -19 10 -14 10 4 14 3 11 -2 -3
-5 -1 -12 5 -16 6 -4 8 -11 5 -16 -4 -5 1 -12 9 -15 9 -3 16 -12 16 -20 0 -8
5 -14 10 -14 14 0 70 -89 70 -111 0 -10 9 -20 19 -24 11 -3 23 -15 27 -27 5
-16 8 -18 15 -7 7 11 10 9 15 -8 3 -12 15 -25 25 -28 10 -4 19 -11 19 -17 0
-18 49 -58 56 -46 4 6 23 -7 46 -31 21 -23 43 -39 47 -36 5 2 12 -3 15 -12 6
-15 8 -15 16 -3 7 10 10 11 10 2 0 -29 100 -100 137 -97 13 1 21 0 18 -3 -9
-9 17 -43 30 -38 7 2 19 -1 25 -9 6 -8 18 -11 26 -8 7 3 17 -2 20 -11 3 -9 11
-13 16 -10 14 9 58 -17 51 -30 -3 -6 -3 -8 1 -4 4 3 22 0 41 -7 18 -8 36 -11
40 -7 5 4 5 1 1 -5 -5 -8 -1 -14 11 -15 28 -2 36 -4 66 -16 16 -7 35 -12 43
-12 8 0 14 -6 14 -12 0 -9 4 -8 10 2 6 9 10 11 10 3 0 -7 7 -10 15 -6 10 3 15
1 13 -7 -3 -11 33 -22 74 -21 10 0 20 -5 23 -10 4 -5 10 -7 15 -4 5 3 21 0 37
-7 15 -6 31 -12 36 -13 4 -2 10 -4 15 -5 4 -1 18 -1 31 0 16 1 21 -2 16 -11
-6 -9 -2 -11 14 -6 12 3 36 -2 53 -10 17 -9 43 -16 59 -15 29 1 42 -17 33 -43
-4 -8 -1 -15 6 -15 9 0 11 -14 8 -49 -3 -28 -1 -49 4 -48 5 1 11 -16 13 -37 3
-22 8 -42 13 -45 4 -3 7 -23 6 -43 -1 -22 4 -42 12 -49 8 -6 11 -16 7 -22 -3
-5 2 -16 11 -23 10 -7 13 -15 7 -18 -7 -5 -7 -15 -1 -32 6 -14 8 -30 5 -35 -4
-5 0 -6 8 -3 14 5 27 -32 28 -79 0 -13 5 -17 16 -13 12 5 13 3 7 -6 -10 -13
28 -103 38 -93 3 3 13 -11 24 -30 10 -19 22 -35 26 -35 5 0 8 -6 8 -14 0 -8
13 -29 29 -47 17 -18 29 -35 29 -38 -3 -15 19 -47 49 -74 19 -16 32 -35 30
-41 -2 -6 5 -20 17 -31 12 -11 27 -32 33 -47 7 -16 18 -28 24 -28 8 0 8 -4 -1
-15 -9 -11 -10 -15 -1 -15 15 0 41 -25 41 -39 0 -5 9 -13 20 -16 11 -3 27 -14
37 -23 9 -9 19 -17 22 -18 19 -3 40 -17 36 -24 -8 -14 26 -42 43 -35 9 3 13 3
9 -1 -7 -7 30 -44 43 -44 4 0 10 -8 13 -19 3 -14 12 -18 40 -16 20 2 36 0 35
-4 -2 -19 3 -31 11 -26 5 3 12 1 16 -5 3 -5 17 -10 31 -10 13 0 24 -4 24 -10
0 -5 9 -10 20 -10 11 0 20 -5 20 -12 0 -6 3 -8 7 -5 3 4 12 -1 19 -11 7 -9 16
-17 21 -17 22 0 72 -29 66 -38 -4 -7 5 -8 27 -4 26 6 36 3 47 -13 7 -10 20
-17 27 -14 8 3 26 -2 39 -11 20 -12 26 -13 29 -3 4 10 9 8 22 -5 16 -16 30
-21 49 -18 4 0 7 -4 7 -9 0 -6 11 -10 25 -10 14 0 25 -4 25 -9 0 -12 33 -9 42
4 5 6 12 5 20 -4 11 -11 11 -13 -1 -6 -9 5 -12 4 -8 -3 7 -11 32 -11 43 1 4 4
16 -1 27 -10 11 -10 17 -13 14 -7 -4 7 1 18 10 25 15 12 16 12 10 -3 -4 -12
-2 -15 9 -11 7 3 14 0 14 -6 0 -6 5 -11 11 -11 5 0 7 5 3 11 -4 7 1 7 16 -1
12 -6 30 -10 40 -7 9 2 26 -1 36 -7 22 -13 124 -15 124 -2 0 4 8 5 18 1 9 -4
22 -7 27 -7 6 1 70 4 144 6 79 3 139 10 147 17 8 6 14 7 14 2 0 -6 11 -9 25
-8 14 2 27 -1 31 -6 3 -5 12 -2 20 6 9 8 21 15 27 15 8 0 8 -3 -1 -8 -8 -6 -1
-9 20 -9 18 0 40 5 48 12 20 16 59 25 65 15 6 -9 51 -4 69 8 6 3 20 5 31 3 15
-2 17 0 8 11 -9 11 -8 14 5 15 18 1 75 20 105 35 10 5 22 6 27 3 6 -4 10 1 10
9 0 9 3 15 8 14 4 -1 17 3 30 10 12 7 22 10 22 6 0 -3 6 -1 14 5 8 7 25 14 37
16 13 3 25 9 27 14 2 6 10 7 18 4 8 -3 23 4 33 16 10 11 25 21 34 21 8 0 17 5
19 12 2 6 14 12 26 13 12 1 33 11 47 23 14 12 30 22 36 22 5 0 7 5 4 10 -3 6
3 10 14 10 12 0 21 4 21 9 0 5 14 12 30 16 17 4 28 11 24 16 -3 5 3 12 13 16
34 13 112 71 105 78 -4 5 3 6 14 3 15 -4 21 -1 20 10 0 9 8 18 19 20 17 3 74
52 61 52 -8 0 59 64 67 65 11 0 27 27 21 36 -2 4 4 10 15 14 10 3 26 21 36 40
9 19 20 35 26 35 6 0 8 4 5 9 -3 5 1 14 9 21 8 7 12 16 9 21 -3 5 1 12 9 15 8
3 13 16 11 30 -1 17 3 24 15 24 19 0 41 38 41 72 0 11 8 27 18 35 11 10 12 12
2 8 -12 -5 -11 -3 1 7 14 12 33 63 34 93 0 6 6 16 13 23 7 8 10 17 7 22 -3 5
-1 11 5 15 5 3 10 20 10 36 0 18 4 28 10 24 10 -6 14 7 11 32 -1 7 5 26 14 42
10 20 11 32 4 36 -7 5 -4 14 7 26 12 13 18 39 19 86 1 38 8 87 14 111 7 24 9
52 6 62 -4 12 -2 20 5 20 7 0 8 6 2 16 -5 9 -6 32 -2 50 4 19 6 34 3 34 -2 0
3 7 12 16 14 15 14 17 -2 31 -13 10 -15 16 -5 19 6 3 12 19 12 35 0 16 4 29 9
29 9 0 5 65 -4 81 -3 4 -1 10 3 13 11 7 10 106 -1 123 -6 9 -3 11 8 7 13 -5
14 -2 7 17 -5 13 -7 30 -4 38 2 8 0 11 -6 7 -6 -4 -8 2 -5 14 3 11 0 26 -6 34
-9 11 -9 16 0 22 8 5 9 3 4 -6 -5 -8 -4 -11 3 -6 12 7 5 36 -9 36 -4 0 -6 7
-3 15 4 8 1 15 -6 15 -9 0 -11 11 -7 38 4 20 3 32 -1 26 -5 -9 -10 -9 -17 0
-15 16 -11 41 5 38 9 -1 5 6 -9 18 -13 11 -21 26 -18 35 4 8 2 17 -4 20 -5 4
-7 11 -4 16 4 5 1 9 -5 9 -6 0 -9 4 -6 9 3 4 -3 19 -14 31 -11 13 -20 26 -20
30 0 4 -14 21 -30 39 -17 17 -28 36 -25 41 3 5 -4 11 -15 15 -11 3 -21 11 -21
16 -1 5 -2 13 -3 17 0 5 -21 29 -46 53 -25 25 -54 62 -64 82 -11 20 -25 37
-33 37 -7 0 -13 7 -13 15 0 8 -6 15 -13 15 -13 0 -67 56 -61 63 2 2 -12 9 -30
15 -19 7 -36 21 -39 32 -3 12 -14 20 -26 20 -12 0 -30 9 -41 20 -11 11 -26 20
-33 20 -8 0 -20 11 -27 25 -7 13 -16 22 -20 20 -11 -7 -31 20 -22 29 4 5 0 6
-9 4 -19 -4 -89 23 -89 34 0 4 -7 8 -16 8 -9 0 -12 5 -8 12 5 8 2 9 -9 5 -12
-4 -17 -1 -17 9 0 10 -6 14 -14 11 -8 -3 -20 1 -26 9 -7 8 -20 14 -30 14 -10
0 -23 6 -29 14 -11 13 -12 66 -1 66 3 0 6 9 7 20 1 11 -3 20 -10 20 -6 0 -2 7
9 16 10 8 13 13 7 9 -9 -4 -13 2 -13 19 0 14 5 26 11 26 8 0 8 4 1 13 -5 6 -9
44 -8 84 0 39 -2 69 -7 66 -8 -5 -2 66 7 75 3 3 -2 11 -12 19 -9 8 -11 11 -3
7 11 -5 12 -1 7 22 -16 70 -18 80 -19 107 0 15 -4 27 -8 27 -5 0 -9 11 -9 23
0 13 -3 27 -7 30 -3 4 -8 17 -9 29 -6 40 -9 53 -19 68 -5 8 -10 21 -11 30 -1
8 -5 24 -9 35 -5 16 -5 17 4 5 6 -8 11 -10 11 -4 0 6 -7 17 -15 24 -8 7 -15
21 -15 31 0 11 -10 29 -22 41 -13 13 -21 32 -20 45 2 16 -2 23 -12 23 -10 0
-16 9 -16 25 0 15 -5 24 -12 23 -7 -2 -14 6 -15 17 -2 29 -14 65 -22 65 -3 0
-12 9 -19 21 -8 12 -9 18 -3 14 6 -3 11 -1 11 4 0 6 -4 11 -10 11 -21 0 -50
36 -50 62 0 24 -8 32 -31 30 -3 -1 -6 6 -6 13 0 12 3 12 16 2 14 -11 14 -10 2
6 -7 9 -19 17 -27 17 -7 0 -16 9 -19 20 -3 11 -10 20 -15 20 -4 0 -10 9 -13
20 -3 11 -12 20 -21 20 -9 0 -19 13 -23 29 -5 17 -23 40 -43 53 -19 13 -35 30
-36 38 -2 35 -5 41 -14 35 -5 -3 -10 1 -10 9 0 9 -6 16 -14 16 -8 0 -16 7 -20
15 -3 8 -12 15 -21 15 -8 0 -15 4 -15 9 0 5 -9 12 -19 16 -10 3 -21 15 -24 26
-4 16 -11 19 -26 14 -12 -3 -21 -2 -21 3 0 5 -10 14 -22 21 -17 9 -18 10 -3 6
17 -5 16 -3 -5 18 -14 13 -31 21 -37 19 -7 -2 -18 8 -24 22 -10 20 -15 23 -26
15 -11 -9 -12 -8 -7 5 5 12 0 19 -15 23 -11 3 -21 11 -21 18 0 7 -20 18 -45
25 -27 8 -47 20 -50 31 -4 11 -11 19 -16 19 -6 0 -7 -5 -3 -11 3 -6 -5 -3 -20
6 -14 10 -26 24 -26 32 0 7 -6 13 -12 12 -19 -3 -51 12 -65 30 -6 9 -15 16
-20 16 -4 1 -18 6 -30 13 -13 7 -23 10 -23 6 0 -4 -9 3 -20 15 -10 13 -25 21
-32 18 -7 -2 -22 1 -33 6 -11 6 -24 11 -30 12 -35 3 -96 18 -100 25 -3 5 -12
7 -20 3 -9 -3 -21 0 -29 6 -7 6 -16 8 -19 4 -4 -3 -7 2 -7 11 0 12 -5 16 -15
12 -8 -3 -20 0 -27 7 -12 11 -38 17 -90 20 -10 1 -18 5 -18 9 0 4 -22 5 -50 2
-57 -6 -66 8 -27 43 38 36 67 74 67 89 0 9 4 13 8 10 4 -2 14 0 22 5 13 8 13
10 1 18 -11 7 -10 10 5 15 28 9 59 72 61 125 1 25 3 54 3 63 1 10 6 21 12 24
7 4 6 9 -2 14 -14 9 -19 79 -6 87 5 4 6 1 1 -7 -5 -9 -4 -11 3 -6 7 4 12 14
12 22 0 8 -4 13 -9 10 -5 -4 -7 4 -3 16 4 15 2 19 -7 14 -10 -6 -10 -4 0 11
10 16 8 31 -6 76 -10 32 -20 57 -24 56 -3 0 -19 -5 -36 -10z m1145 -5949 c0
-5 -2 -10 -4 -10 -3 0 -8 5 -11 10 -3 6 -1 10 4 10 6 0 11 -4 11 -10z"/>
<path d="M2710 550 c0 -5 5 -10 11 -10 5 0 7 5 4 10 -3 6 -8 10 -11 10 -2 0
-4 -4 -4 -10z"/>
</g>
</svg>
